# xmcd CD database file generated by OrangeCD 5.2
#
# Track frame offsets:
#	150
#	15397
#	28685
#	43647
#	58007
#	73817
#	86347
#	97415
#	110467
#	124187
#	137380
#	152572
#	162745
#	176682
#	187707
#	201647
#	214905
#	226295
#	236472
#	249437
#	262290
#	274115
#	283347
#	295345
#	305862
#
# Disc length: 4350 seconds
#
# Revision: 0
# Processed by: cddbd v1.5.1PL0 Copyright (c) Steve Scherf et al.
# Submitted via: OrangeCD 5.2
#
DISCID=8010fc19
DTITLE=RCA - The RCA Victor Blues and Rhythm Revue
DYEAR=1988
DGENRE=R&B Compilation
TTITLE0=Lil Green - Romance In The Dark
TTITLE1=Lil Green - Why Don't You Do Right ?
TTITLE2=Erskine Hawkins - After Hours
TTITLE3=Earl Hines - Stormy Monday Blues
TTITLE4=Earl Hines - Jelly Jelly
TTITLE5=Etta Jones and J.C. Heard - I Sold My Heart To The Junkman
TTITLE6=Illinois Jacquet - Hot Rod 
TTITLE7=Delta Rhythm Boys - Dry Bones
TTITLE8=Delta Rhythm Boys - Take The "A" Train
TTITLE9=Johnny Moore's Three Blazers - Rock With It
TTITLE10=Cab Calloway - Rooming House Boogie
TTITLE11=Lucky Millinder - Moanin' The Blues
TTITLE12=Count Basie - Hey Pretty Baby
TTITLE13=Count Basie - Did You See Jackie Robinson Hit That Ball ?
TTITLE14=Lucky Millinder - D'Natural Blues
TTITLE15=Jesse Stone - Cole Slaw
TTITLE16=Mr. Sad Head - Butcher Boy
TTITLE17=Little Richard - Get Rich Quick
TTITLE18=Milt Trenier - Squeeze Me
TTITLE19=Little Richard - Thinkin' 'bout My Mother
TTITLE20=The Heartbreakers - Rockin' Daddy-o
TTITLE21=The Du Droppers - Bam Balam
TTITLE22=The Du Droppers - Boot 'em Up
TTITLE23=King Curtis - Open Up
TTITLE24=The Isley Brothers - Shout
EXTD=
EXTT0=
EXTT1=
EXTT2=
EXTT3=
EXTT4=
EXTT5=
EXTT6=
EXTT7=
EXTT8=
EXTT9=
EXTT10=
EXTT11=
EXTT12=
EXTT13=
EXTT14=
EXTT15=
EXTT16=
EXTT17=
EXTT18=
EXTT19=
EXTT20=
EXTT21=
EXTT22=
EXTT23=
EXTT24=
PLAYORDER=
